<svg width="430" height="932" viewBox="0 0 430 932" fill="none" xmlns="http://www.w3.org/2000/svg">
<rect width="430" height="932" fill="url(#paint0_linear_342_1504)"/>
<g filter="url(#filter0_dd_342_1504)">
<path d="M155.693 434C173.51 434 187.953 448.443 187.953 466.26C187.953 484.076 173.51 498.52 155.693 498.52H124V434H155.693ZM144.94 450.413V481.541H153.43C160.931 481.541 167.012 475.46 167.013 467.958V463.996C167.013 456.494 160.931 450.413 153.43 450.413H144.94Z" fill="white"/>
</g>
<path d="M260.006 472.935C261.549 471.641 263.451 470.875 265.509 470.875C270.663 470.875 274.842 475.665 274.842 481.573C274.842 487.481 270.663 492.271 265.509 492.271C263.45 492.271 261.549 491.506 260.006 490.212V498.854H252.349V470.875H260.006V472.935ZM199.681 492.271H192V470.875H199.681V492.271ZM203.52 473.501C205.455 471.645 208.012 470.627 210.716 470.927C213.647 470.927 216.707 472.546 218.845 474.679L215.238 478.521L213.982 477.685C212.779 476.884 211.412 476.362 209.981 476.158L209.762 476.127C209.442 476.081 209.116 476.104 208.806 476.192L208.43 476.3C208.08 476.4 207.838 476.72 207.838 477.084C207.838 477.448 208.08 477.769 208.43 477.869L210.716 478.521L212.978 479.342L214.786 479.974C216.272 480.493 217.527 481.522 218.326 482.879C218.851 483.77 219.011 484.829 218.774 485.835L218.612 486.524C218.481 487.081 218.257 487.608 217.955 488.09C216.19 490.431 213.84 492.271 210.716 492.271C207.206 492.271 204.091 490.582 202.143 487.974L205.458 484.316L206.723 485.188C207.896 485.996 209.239 486.526 210.648 486.734L210.854 486.765C211.18 486.813 211.513 486.789 211.829 486.695L212.167 486.596C212.525 486.49 212.771 486.161 212.771 485.787C212.771 485.413 212.525 485.083 212.167 484.978L209.928 484.316L207.693 483.476L205.779 482.783C204.392 482.281 203.229 481.3 202.5 480.018C201.92 478.997 201.735 477.798 201.981 476.65L202.077 476.205C202.295 475.189 202.795 474.255 203.517 473.508C203.518 473.506 203.518 473.503 203.52 473.501ZM231.227 470.875C235.349 470.875 238.895 473.467 240.483 477.188L234.251 479.136C233.662 477.795 232.651 476.91 231.501 476.91C229.683 476.91 228.209 479.121 228.209 481.848C228.209 484.574 229.683 486.785 231.501 486.785C232.638 486.785 233.64 485.919 234.231 484.604L240.165 486.643C238.451 489.993 235.091 492.271 231.227 492.271C225.621 492.271 221.077 487.482 221.077 481.573C221.077 475.665 225.621 470.875 231.227 470.875ZM250.153 492.271H242.473V470.875H250.153V492.271ZM284.717 492.271H277.036V461H284.717V492.271ZM297.061 470.875C302.666 470.875 307.21 475.665 307.21 481.573C307.21 482.229 307.151 482.87 307.044 483.493H294.043C294.043 485.008 295.763 486.236 297.884 486.236C298.934 486.236 299.885 485.933 300.578 485.445L304.842 488.438C302.98 490.78 300.186 492.271 297.061 492.271C291.455 492.271 286.911 487.482 286.911 481.573C286.911 475.665 291.455 470.875 297.061 470.875ZM264.176 475.556C261.967 475.556 260.177 478.25 260.177 481.573C260.177 484.897 261.967 487.591 264.176 487.591C266.385 487.591 268.176 484.897 268.176 481.573C268.176 478.25 266.385 475.556 264.176 475.556ZM297.061 476.361C295.394 476.361 294.043 478.08 294.043 480.201H300.078C300.078 478.081 298.727 476.362 297.061 476.361ZM195.84 461C197.961 461 199.68 462.719 199.681 464.84C199.681 466.961 197.961 468.681 195.84 468.681C193.719 468.68 192 466.961 192 464.84C192 462.719 193.719 461 195.84 461ZM246.313 461C248.434 461 250.153 462.719 250.153 464.84C250.153 466.961 248.434 468.68 246.313 468.681C244.193 468.681 242.473 466.961 242.473 464.84C242.473 462.719 244.193 461 246.313 461Z" fill="white"/>
<defs>
<filter id="filter0_dd_342_1504" x="118.884" y="434" width="74.1857" height="74.7521" filterUnits="userSpaceOnUse" color-interpolation-filters="sRGB">
<feFlood flood-opacity="0" result="BackgroundImageFix"/>
<feColorMatrix in="SourceAlpha" type="matrix" values="0 0 0 0 0 0 0 0 0 0 0 0 0 0 0 0 0 0 127 0" result="hardAlpha"/>
<feOffset dy="5.11627"/>
<feGaussianBlur stdDeviation="2.55814"/>
<feComposite in2="hardAlpha" operator="out"/>
<feColorMatrix type="matrix" values="0 0 0 0 0 0 0 0 0 0 0 0 0 0 0 0 0 0 0.25 0"/>
<feBlend mode="normal" in2="BackgroundImageFix" result="effect1_dropShadow_342_1504"/>
<feColorMatrix in="SourceAlpha" type="matrix" values="0 0 0 0 0 0 0 0 0 0 0 0 0 0 0 0 0 0 127 0" result="hardAlpha"/>
<feOffset dy="5.11627"/>
<feGaussianBlur stdDeviation="2.55814"/>
<feComposite in2="hardAlpha" operator="out"/>
<feColorMatrix type="matrix" values="0 0 0 0 0 0 0 0 0 0 0 0 0 0 0 0 0 0 0.25 0"/>
<feBlend mode="normal" in2="effect1_dropShadow_342_1504" result="effect2_dropShadow_342_1504"/>
<feBlend mode="normal" in="SourceGraphic" in2="effect2_dropShadow_342_1504" result="shape"/>
</filter>
<linearGradient id="paint0_linear_342_1504" x1="-0.00233224" y1="464.442" x2="408.277" y2="370.272" gradientUnits="userSpaceOnUse">
<stop stop-color="#53389E"/>
<stop offset="1" stop-color="#7F56D9"/>
</linearGradient>
</defs>
</svg>
