<svg width="8" height="14" viewBox="0 0 8 14" fill="none" xmlns="http://www.w3.org/2000/svg">
<path d="M0.99175 1.37725L6.47275 7.00001L0.99175 12.6228C0.893616 12.7232 0.838676 12.8581 0.838676 12.9985C0.838676 13.1389 0.893616 13.2738 0.99175 13.3743C1.03941 13.4229 1.0963 13.4615 1.15908 13.4879C1.22186 13.5143 1.28927 13.5279 1.35737 13.5279C1.42547 13.5279 1.49289 13.5143 1.55567 13.4879C1.61845 13.4615 1.67534 13.4229 1.723 13.3743L7.555 7.39263C7.65739 7.28758 7.71469 7.1467 7.71469 7.00001C7.71469 6.85331 7.65739 6.71243 7.555 6.60738L1.72412 0.625754C1.67643 0.576768 1.6194 0.537832 1.55641 0.511248C1.49342 0.484662 1.42575 0.470965 1.35737 0.470965C1.289 0.470965 1.22133 0.484662 1.15834 0.511248C1.09535 0.537832 1.03832 0.576768 0.990624 0.625754C0.892491 0.72621 0.837551 0.861072 0.837551 1.0015C0.837551 1.14194 0.892491 1.2768 0.990624 1.37725H0.99175Z" fill="#53389E"/>
</svg>
