<svg width="190" height="75" viewBox="0 0 190 75" fill="none" xmlns="http://www.w3.org/2000/svg">
<g filter="url(#filter0_dd_342_1639)">
<path d="M37.6934 0C55.5099 0 69.9531 14.4432 69.9531 32.2598C69.9531 50.0763 55.5099 64.5195 37.6934 64.5195H6V0L37.6934 0ZM26.9404 16.4131V47.541H35.4297C42.9312 47.541 49.0125 41.4595 49.0127 33.958V29.9961C49.0127 22.4944 42.9314 16.4131 35.4297 16.4131H26.9404Z" fill="white"/>
</g>
<path d="M142.006 38.9346C143.549 37.6405 145.451 36.8751 147.509 36.875C152.663 36.8751 156.842 41.665 156.842 47.5732C156.842 53.4815 152.663 58.2714 147.509 58.2715C145.45 58.2714 143.549 57.506 142.006 56.2119V64.8545H134.349V36.875H142.006V38.9346ZM81.6807 58.2715H74V36.875H81.6807V58.2715ZM85.5195 39.501C87.4554 37.6447 90.0116 36.6269 92.7158 36.9268C95.6466 36.9268 98.7068 38.5464 100.845 40.6787L97.2383 44.5205L95.9824 43.6846C94.7794 42.8839 93.4121 42.3623 91.9814 42.1582L91.7617 42.127C91.4422 42.0815 91.116 42.1038 90.8057 42.1924L90.4297 42.2998C90.0797 42.4 89.8379 42.7199 89.8379 43.084C89.8379 43.4482 90.0796 43.769 90.4297 43.8691L92.7158 44.5205L94.9775 45.3418L96.7861 45.9736C98.2724 46.493 99.5269 47.5225 100.326 48.8789C100.851 49.7695 101.011 50.8288 100.774 51.835L100.612 52.5244C100.481 53.0808 100.257 53.6084 99.9551 54.0898C98.1905 56.4306 95.8405 58.2715 92.7158 58.2715C89.206 58.2714 86.0913 56.582 84.1426 53.9736L87.458 50.3164L88.7227 51.1875C89.8958 51.9964 91.2388 52.526 92.6484 52.7344L92.8545 52.7646C93.1803 52.8128 93.5132 52.7886 93.8291 52.6953L94.167 52.5957C94.5254 52.4898 94.7714 52.1608 94.7715 51.7871C94.7715 51.4133 94.5255 51.0835 94.167 50.9775L91.9277 50.3164L89.6934 49.4756L87.7793 48.7832C86.3922 48.281 85.2293 47.2999 84.5 46.0176C83.9197 44.997 83.735 43.7983 83.9814 42.6504L84.0771 42.2051C84.2954 41.1894 84.7945 40.2548 85.5166 39.5078C85.5182 39.5061 85.5182 39.5028 85.5195 39.501ZM113.227 36.875C117.349 36.8752 120.895 39.4673 122.483 43.1885L116.251 45.1357C115.662 43.7953 114.651 42.9104 113.501 42.9102C111.683 42.9102 110.209 45.1208 110.209 47.8477C110.209 50.5745 111.683 52.7852 113.501 52.7852C114.638 52.7849 115.64 51.9191 116.231 50.6035L122.165 52.6426C120.451 55.9933 117.091 58.2713 113.227 58.2715C107.621 58.2715 103.077 53.4815 103.077 47.5732C103.077 41.6649 107.621 36.875 113.227 36.875ZM132.153 58.2715H124.473V36.875H132.153V58.2715ZM166.717 58.2715H159.036V27H166.717V58.2715ZM179.061 36.875C184.666 36.8751 189.21 41.665 189.21 47.5732C189.21 48.2288 189.151 48.8702 189.044 49.4932H176.043C176.043 51.0081 177.763 52.2363 179.884 52.2363C180.934 52.2362 181.885 51.9334 182.578 51.4453L186.842 54.4385C184.98 56.7804 182.186 58.2714 179.061 58.2715C173.455 58.2715 168.911 53.4815 168.911 47.5732C168.911 41.6649 173.455 36.875 179.061 36.875ZM146.176 41.5557C143.967 41.5557 142.177 44.2499 142.177 47.5732C142.177 50.8966 143.967 53.5907 146.176 53.5908C148.385 53.5907 150.176 50.8965 150.176 47.5732C150.176 44.2499 148.385 41.5558 146.176 41.5557ZM179.061 42.3613C177.394 42.3613 176.043 44.0804 176.043 46.2012H182.078C182.078 44.0806 180.727 42.3616 179.061 42.3613ZM77.8398 27C79.9606 27 81.6804 28.7191 81.6807 30.8398C81.6807 32.9608 79.9608 34.6807 77.8398 34.6807C75.7191 34.6804 74 32.9606 74 30.8398C74.0003 28.7193 75.7193 27.0003 77.8398 27ZM128.313 27C130.434 27.0002 132.153 28.7192 132.153 30.8398C132.153 32.9607 130.434 34.6805 128.313 34.6807C126.193 34.6807 124.473 32.9608 124.473 30.8398C124.473 28.7191 126.193 27 128.313 27Z" fill="white"/>
<defs>
<filter id="filter0_dd_342_1639" x="0.883726" y="0" width="74.1857" height="74.7521" filterUnits="userSpaceOnUse" color-interpolation-filters="sRGB">
<feFlood flood-opacity="0" result="BackgroundImageFix"/>
<feColorMatrix in="SourceAlpha" type="matrix" values="0 0 0 0 0 0 0 0 0 0 0 0 0 0 0 0 0 0 127 0" result="hardAlpha"/>
<feOffset dy="5.11627"/>
<feGaussianBlur stdDeviation="2.55814"/>
<feComposite in2="hardAlpha" operator="out"/>
<feColorMatrix type="matrix" values="0 0 0 0 0 0 0 0 0 0 0 0 0 0 0 0 0 0 0.25 0"/>
<feBlend mode="normal" in2="BackgroundImageFix" result="effect1_dropShadow_342_1639"/>
<feColorMatrix in="SourceAlpha" type="matrix" values="0 0 0 0 0 0 0 0 0 0 0 0 0 0 0 0 0 0 127 0" result="hardAlpha"/>
<feOffset dy="5.11627"/>
<feGaussianBlur stdDeviation="2.55814"/>
<feComposite in2="hardAlpha" operator="out"/>
<feColorMatrix type="matrix" values="0 0 0 0 0 0 0 0 0 0 0 0 0 0 0 0 0 0 0.25 0"/>
<feBlend mode="normal" in2="effect1_dropShadow_342_1639" result="effect2_dropShadow_342_1639"/>
<feBlend mode="normal" in="SourceGraphic" in2="effect2_dropShadow_342_1639" result="shape"/>
</filter>
</defs>
</svg>
