<svg width="2" height="14" viewBox="0 0 2 14" fill="none" xmlns="http://www.w3.org/2000/svg">
<path d="M0.000187874 1C0.000187874 0.861 0.000188247 0.790999 0.00818825 0.732999C0.0337916 0.550035 0.118309 0.380393 0.248945 0.249757C0.379582 0.119121 0.549223 0.0346027 0.732188 0.00899935C0.791188 0.000999347 0.860187 0.000999451 0.999187 0.000999451C1.13819 0.000999451 1.20919 0.000999347 1.26619 0.00899935C1.44915 0.0346027 1.61879 0.119121 1.74943 0.249757C1.88007 0.380393 1.96458 0.550035 1.99019 0.732999C1.99819 0.790999 1.99819 0.861 1.99819 1C1.99819 1.139 1.99819 1.209 1.99019 1.267C1.96458 1.44996 1.88007 1.61961 1.74943 1.75024C1.61879 1.88088 1.44915 1.9654 1.26619 1.991C1.20819 1.999 1.13819 1.999 0.999187 1.999C0.860187 1.999 0.790188 1.999 0.732188 1.991C0.549223 1.9654 0.379582 1.88088 0.248945 1.75024C0.118309 1.61961 0.0337916 1.44996 0.00818825 1.267C0.000188247 1.209 0.000187874 1.139 0.000187874 1ZM0.000187874 7C0.000187874 6.861 0.000188247 6.791 0.00818825 6.733C0.0337916 6.55003 0.118309 6.38039 0.248945 6.24976C0.379582 6.11912 0.549223 6.0346 0.732188 6.009C0.791188 6.001 0.860187 6.001 0.999187 6.001C1.13819 6.001 1.20919 6.001 1.26619 6.009C1.44915 6.0346 1.61879 6.11912 1.74943 6.24976C1.88007 6.38039 1.96458 6.55003 1.99019 6.733C1.99819 6.791 1.99819 6.861 1.99819 7C1.99819 7.139 1.99819 7.209 1.99019 7.267C1.96458 7.44996 1.88007 7.61961 1.74943 7.75024C1.61879 7.88088 1.44915 7.9654 1.26619 7.991C1.20819 7.999 1.13819 7.999 0.999187 7.999C0.860187 7.999 0.790188 7.999 0.732188 7.991C0.549223 7.9654 0.379582 7.88088 0.248945 7.75024C0.118309 7.61961 0.0337916 7.44996 0.00818825 7.267C0.000188247 7.209 0.000187874 7.139 0.000187874 7ZM0.000187874 12.7C-0.00781213 12.758 -0.0078125 12.828 -0.0078125 12.967C-0.0078125 13.106 -0.00781213 13.176 0.000187874 13.234C0.0257913 13.417 0.110309 13.5866 0.240945 13.7172C0.371581 13.8479 0.541223 13.9324 0.724188 13.958C0.782188 13.966 0.852188 13.966 0.991188 13.966C1.13019 13.966 1.20019 13.966 1.25819 13.958C1.44115 13.9324 1.6108 13.8479 1.74143 13.7172C1.87207 13.5866 1.95658 13.417 1.98219 13.234C1.99019 13.176 1.99019 13.106 1.99019 12.967C1.99019 12.828 1.99019 12.758 1.98219 12.7C1.95658 12.517 1.87207 12.3474 1.74143 12.2168C1.6108 12.0861 1.44115 12.0016 1.25819 11.976C1.20019 11.968 1.13019 11.968 0.991188 11.968C0.852188 11.968 0.782188 11.968 0.724188 11.976C0.541223 12.0016 0.371581 12.0861 0.240945 12.2168C0.110309 12.3474 0.0257913 12.517 0.000187874 12.7Z" fill="#344054"/>
</svg>
