<svg width="12" height="12" viewBox="0 0 12 12" fill="none" xmlns="http://www.w3.org/2000/svg">
<g clip-path="url(#clip0_295_21272)">
<path d="M10.6377 0.952805C9.05574 2.32193 7.71736 3.62524 6.49205 5.32568C5.95167 6.07568 5.35074 6.95843 4.95792 7.79187C4.73367 8.23381 4.32942 8.92437 4.19161 9.58831C3.43786 8.88706 2.62824 8.09112 1.79986 7.46768C1.20942 7.02349 -0.491201 7.92912 0.20105 8.44999C1.44174 9.38318 2.47355 10.5455 3.6803 11.5203C4.18505 11.9276 5.30367 11.0431 5.56655 10.6721C6.42942 9.44956 6.54736 7.95518 7.17624 6.62168C8.13643 4.58224 9.8393 2.90693 11.5206 1.45212C12.6346 0.41318 11.4841 0.221555 10.6394 0.952805" fill="#12B76A"/>
</g>
<defs>
<clipPath id="clip0_295_21272">
<rect width="12" height="12" fill="white"/>
</clipPath>
</defs>
</svg>
