<svg width="12" height="12" viewBox="0 0 12 12" fill="none" xmlns="http://www.w3.org/2000/svg">
<path d="M9.7485 3.99451L6 7.64851L2.2515 3.99451C2.18453 3.92909 2.09462 3.89246 2.001 3.89246C1.90737 3.89246 1.81747 3.92909 1.7505 3.99451C1.71807 4.02628 1.69231 4.0642 1.67472 4.10606C1.65713 4.14791 1.64807 4.19286 1.64807 4.23826C1.64807 4.28366 1.65713 4.3286 1.67472 4.37045C1.69231 4.41231 1.71807 4.45023 1.7505 4.48201L5.73825 8.37001C5.80828 8.43827 5.9022 8.47647 6 8.47647C6.09779 8.47647 6.19172 8.43827 6.26175 8.37001L10.2495 4.48276C10.2822 4.45096 10.3081 4.41294 10.3258 4.37095C10.3436 4.32896 10.3527 4.28384 10.3527 4.23826C10.3527 4.19268 10.3436 4.14756 10.3258 4.10556C10.3081 4.06357 10.2822 4.02555 10.2495 3.99376C10.1825 3.92833 10.0926 3.89171 9.999 3.89171C9.90537 3.89171 9.81547 3.92833 9.7485 3.99376V3.99451Z" fill="#667085"/>
</svg>
