<svg width="23" height="23" viewBox="0 0 23 23" fill="none" xmlns="http://www.w3.org/2000/svg">
<path d="M15.0556 20.0838C15.3134 19.826 15.4582 19.4763 15.4582 19.1117C15.4582 18.7471 15.3134 18.3974 15.0556 18.1396L8.24938 11.3333L15.0556 4.52706C15.3061 4.26773 15.4447 3.9204 15.4416 3.55988C15.4384 3.19936 15.2938 2.85449 15.0389 2.59956C14.7839 2.34462 14.4391 2.20001 14.0786 2.19688C13.718 2.19375 13.3707 2.33234 13.1114 2.58281L5.333 10.3612C5.07523 10.619 4.93042 10.9687 4.93042 11.3333C4.93042 11.6979 5.07523 12.0476 5.333 12.3054L13.1114 20.0838C13.3692 20.3416 13.7189 20.4864 14.0835 20.4864C14.4481 20.4864 14.7978 20.3416 15.0556 20.0838Z" fill="#53389E"/>
</svg>
