<svg width="23" height="23" viewBox="0 0 23 23" fill="none" xmlns="http://www.w3.org/2000/svg">
<path d="M8.04667 2.58288C7.7889 2.84073 7.64409 3.1904 7.64409 3.555C7.64409 3.9196 7.7889 4.26928 8.04667 4.52713L14.8529 11.3334L8.04667 18.1396C7.7962 18.399 7.65761 18.7463 7.66074 19.1068C7.66387 19.4673 7.80848 19.8122 8.06342 20.0671C8.31835 20.3221 8.66322 20.4667 9.02374 20.4698C9.38426 20.4729 9.73159 20.3343 9.99092 20.0839L17.7693 12.3055C18.0271 12.0477 18.1719 11.698 18.1719 11.3334C18.1719 10.9688 18.0271 10.6191 17.7693 10.3613L9.99092 2.58288C9.73307 2.32511 9.38339 2.1803 9.01879 2.1803C8.65419 2.1803 8.30452 2.32511 8.04667 2.58288Z" fill="#53389E"/>
</svg>
