<svg width="16" height="14" viewBox="0 0 16 14" fill="none" xmlns="http://www.w3.org/2000/svg">
<g clip-path="url(#clip0_325_4649)">
<path d="M1.77778 3.75C1.77778 3.37655 1.85825 3.00676 2.0146 2.66174C2.17094 2.31672 2.40011 2.00323 2.689 1.73917C2.97789 1.4751 3.32086 1.26563 3.69832 1.12272C4.07578 0.979806 4.48033 0.90625 4.88889 0.90625C5.29745 0.90625 5.702 0.979806 6.07946 1.12272C6.45692 1.26563 6.79988 1.4751 7.08878 1.73917C7.37767 2.00323 7.60683 2.31672 7.76318 2.66174C7.91953 3.00676 8 3.37655 8 3.75C8 4.12345 7.91953 4.49324 7.76318 4.83826C7.60683 5.18328 7.37767 5.49677 7.08878 5.76083C6.79988 6.0249 6.45692 6.23437 6.07946 6.37728C5.702 6.52019 5.29745 6.59375 4.88889 6.59375C4.48033 6.59375 4.07578 6.52019 3.69832 6.37728C3.32086 6.23437 2.97789 6.0249 2.689 5.76083C2.40011 5.49677 2.17094 5.18328 2.0146 4.83826C1.85825 4.49324 1.77778 4.12345 1.77778 3.75ZM0 12.2812C0 9.81328 2.18889 7.8125 4.88889 7.8125C7.58889 7.8125 9.77778 9.81328 9.77778 12.2812V12.4336C9.77778 13.0227 9.25556 13.5 8.61111 13.5H1.16667C0.522222 13.5 0 13.0227 0 12.4336V12.2812ZM12 2.125C12.7072 2.125 13.3855 2.38181 13.8856 2.83893C14.3857 3.29605 14.6667 3.91603 14.6667 4.5625C14.6667 5.20897 14.3857 5.82895 13.8856 6.28607C13.3855 6.74319 12.7072 7 12 7C11.2928 7 10.6145 6.74319 10.1144 6.28607C9.61428 5.82895 9.33333 5.20897 9.33333 4.5625C9.33333 3.91603 9.61428 3.29605 10.1144 2.83893C10.6145 2.38181 11.2928 2.125 12 2.125ZM12 8.21875C14.2083 8.21875 16 9.85645 16 11.875V12.4437C16 13.0277 15.4833 13.5 14.8444 13.5H10.8222C11.0056 13.1826 11.1111 12.8195 11.1111 12.4336V12.2812C11.1111 10.9736 10.6278 9.77012 9.81944 8.81035C10.4472 8.43711 11.1972 8.21875 12 8.21875Z" fill="#039855"/>
</g>
<defs>
<clipPath id="clip0_325_4649">
<rect width="16" height="13" fill="white" transform="translate(0 0.5)"/>
</clipPath>
</defs>
</svg>
