<svg width="17" height="17" viewBox="0 0 17 17" fill="none" xmlns="http://www.w3.org/2000/svg">
<path d="M10.8636 6.36365H12.1136C12.4452 6.36365 12.7631 6.49534 12.9975 6.72976C13.2319 6.96418 13.3636 7.28213 13.3636 7.61365V13.6136C13.3636 13.9452 13.2319 14.2631 12.9975 14.4975C12.7631 14.732 12.4452 14.8636 12.1136 14.8636H4.61363C4.28211 14.8636 3.96417 14.732 3.72975 14.4975C3.49533 14.2631 3.36363 13.9452 3.36363 13.6136V7.61365C3.36363 7.28213 3.49533 6.96418 3.72975 6.72976C3.96417 6.49534 4.28211 6.36365 4.61363 6.36365H5.86363M10.8636 4.36365L8.36363 1.86365M8.36363 1.86365L5.86363 4.36365M8.36363 1.86365V10.3949" stroke="white" stroke-linecap="round" stroke-linejoin="round"/>
</svg>
