<svg width="20" height="20" viewBox="0 0 20 20" fill="none" xmlns="http://www.w3.org/2000/svg">
<path d="M4.6875 1.875C3.94158 1.875 3.22621 2.17132 2.69876 2.69876C2.17132 3.22621 1.875 3.94158 1.875 4.6875V15.3125C1.875 16.0584 2.17132 16.7738 2.69876 17.3012C3.22621 17.8287 3.94158 18.125 4.6875 18.125H10.2144C10.5837 18.125 10.9494 18.0523 11.2907 17.9109C11.6319 17.7696 11.942 17.5624 12.2031 17.3012L17.3012 12.2031C17.5624 11.942 17.7696 11.6319 17.9109 11.2907C18.0523 10.9494 18.125 10.5837 18.125 10.2144V4.6875C18.125 3.94158 17.8287 3.22621 17.3012 2.69876C16.7738 2.17132 16.0584 1.875 15.3125 1.875H4.6875ZM2.5 4.6875C2.5 4.10734 2.73047 3.55094 3.1407 3.1407C3.55094 2.73047 4.10734 2.5 4.6875 2.5H15.3125C15.8927 2.5 16.4491 2.73047 16.8593 3.1407C17.2695 3.55094 17.5 4.10734 17.5 4.6875V10.2144C17.5 10.3535 17.4871 10.4904 17.4613 10.625H13.4375C12.6916 10.625 11.9762 10.9213 11.4488 11.4488C10.9213 11.9762 10.625 12.6916 10.625 13.4375V17.4613C10.4897 17.4871 10.3522 17.5 10.2144 17.5H4.6875C4.10734 17.5 3.55094 17.2695 3.1407 16.8593C2.73047 16.4491 2.5 15.8927 2.5 15.3125V4.6875ZM11.25 17.2394V13.4375C11.25 12.8573 11.4805 12.3009 11.8907 11.8907C12.3009 11.4805 12.8573 11.25 13.4375 11.25H17.2394C17.1383 11.438 17.0103 11.6103 16.8594 11.7613L11.7613 16.8594C11.6103 17.0103 11.438 17.1383 11.25 17.2394Z" fill="#344054"/>
</svg>
