<svg width="16" height="16" viewBox="0 0 16 16" fill="none" xmlns="http://www.w3.org/2000/svg">
<path d="M8 4.75001C8 4.68371 7.97366 4.62012 7.92678 4.57323C7.87989 4.52635 7.81631 4.50001 7.75 4.50001C7.6837 4.50001 7.62011 4.52635 7.57322 4.57323C7.52634 4.62012 7.5 4.68371 7.5 4.75001V8.25001C7.5 8.31631 7.52634 8.3799 7.57322 8.42679C7.62011 8.47367 7.6837 8.50001 7.75 8.50001H10.25C10.3163 8.50001 10.3799 8.47367 10.4268 8.42679C10.4737 8.3799 10.5 8.31631 10.5 8.25001C10.5 8.18371 10.4737 8.12012 10.4268 8.07323C10.3799 8.02635 10.3163 8.00001 10.25 8.00001H8V4.75001ZM1.5 4.00001C1.50001 3.48876 1.65676 2.98981 1.94913 2.57041C2.24149 2.151 2.65541 1.83132 3.13508 1.65444C3.61476 1.47757 4.13713 1.45201 4.63178 1.58121C5.12644 1.71041 5.56959 1.98815 5.9015 2.37701C6.57289 2.12707 7.2836 1.99939 8 2.00001C8.738 2.00001 9.445 2.13351 10.0985 2.37701C10.3226 2.11531 10.5984 1.90275 10.9086 1.7527C11.2187 1.60264 11.5566 1.51831 11.9009 1.50501C12.2452 1.49171 12.5885 1.54973 12.9093 1.67542C13.2301 1.8011 13.5215 1.99175 13.7651 2.23538C14.0088 2.47902 14.1994 2.77039 14.3251 3.0912C14.4508 3.41201 14.5088 3.75534 14.4955 4.09964C14.4822 4.44394 14.3979 4.78177 14.2478 5.09193C14.0978 5.4021 13.8852 5.67789 13.6235 5.90201C13.8665 6.55501 14 7.26201 14 8.00001C14.0023 9.5055 13.4363 10.9564 12.415 12.0625L12.427 12.073L13.927 13.573C13.9739 13.62 14.0003 13.6836 14.0003 13.75C14.0003 13.8164 13.9739 13.8801 13.927 13.927C13.8801 13.974 13.8164 14.0003 13.75 14.0003C13.6836 14.0003 13.6199 13.974 13.573 13.927L12.073 12.427L12.063 12.4155C10.9564 13.4363 9.5055 14.0021 8 14C6.4946 14.0019 5.04389 13.4359 3.9375 12.415L3.927 12.427L2.427 13.927C2.38006 13.974 2.31639 14.0003 2.25 14.0003C2.18361 14.0003 2.11994 13.974 2.073 13.927C2.02606 13.8801 1.99969 13.8164 1.99969 13.75C1.99969 13.6836 2.02606 13.62 2.073 13.573L3.573 12.073L3.5845 12.063C2.56372 10.9564 1.99789 9.50551 2 8.00001C2 7.26201 2.1335 6.55501 2.377 5.90151C2.10177 5.66704 1.88079 5.37554 1.72936 5.04722C1.57793 4.71889 1.49967 4.36157 1.5 4.00001ZM2 4.00001C2 4.55201 2.2235 5.05151 2.585 5.41301C3.17808 4.17566 4.17575 3.17781 5.413 2.58451C5.13316 2.30514 4.77678 2.115 4.3889 2.03811C4.00103 1.96122 3.59906 2.00103 3.23381 2.15252C2.86855 2.304 2.5564 2.56036 2.33679 2.8892C2.11719 3.21803 1.99999 3.60459 2 4.00001ZM14 4.00001C13.9999 3.60463 13.8826 3.21814 13.663 2.88939C13.4434 2.56063 13.1312 2.30435 12.766 2.15292C12.4007 2.0015 11.9988 1.96173 11.611 2.03864C11.2231 2.11554 10.8668 2.30567 10.587 2.58501C11.8244 3.17809 12.8222 4.17576 13.4155 5.41301C13.7898 5.03802 14 4.52984 14 4.00001ZM8 13.5C11.0375 13.5 13.5 11.0375 13.5 8.00001C13.5 4.96251 11.0375 2.50001 8 2.50001C4.9625 2.50001 2.5 4.96251 2.5 8.00001C2.5 11.0375 4.9625 13.5 8 13.5Z" fill="black"/>
</svg>
