<svg width="24" height="24" viewBox="0 0 24 24" fill="none" xmlns="http://www.w3.org/2000/svg">
<path d="M15.0001 11.1429C15.3411 11.1429 15.6681 11.0075 15.9092 10.7664C16.1503 10.5252 16.2858 10.1982 16.2858 9.85721C16.2858 9.51622 16.1503 9.18919 15.9092 8.94808C15.6681 8.70696 15.3411 8.5715 15.0001 8.5715C14.6591 8.5715 14.3321 8.70696 14.0909 8.94808C13.8498 9.18919 13.7144 9.51622 13.7144 9.85721C13.7144 10.1982 13.8498 10.5252 14.0909 10.7664C14.3321 11.0075 14.6591 11.1429 15.0001 11.1429ZM10.2858 9.85721C10.2858 10.1982 10.1503 10.5252 9.90921 10.7664C9.66809 11.0075 9.34106 11.1429 9.00007 11.1429C8.65908 11.1429 8.33205 11.0075 8.09093 10.7664C7.84981 10.5252 7.71436 10.1982 7.71436 9.85721C7.71436 9.51622 7.84981 9.18919 8.09093 8.94808C8.33205 8.70696 8.65908 8.5715 9.00007 8.5715C9.34106 8.5715 9.66809 8.70696 9.90921 8.94808C10.1503 9.18919 10.2858 9.51622 10.2858 9.85721ZM7.13836 14.6829C7.27886 14.5873 7.45152 14.5512 7.61857 14.5825C7.78562 14.6138 7.93347 14.71 8.02978 14.8501L8.0375 14.8604L8.07521 14.9109C8.11121 14.9572 8.1695 15.0275 8.24921 15.1149C8.4095 15.2889 8.65378 15.5264 8.98464 15.7638C9.64293 16.2378 10.6389 16.7144 12.0001 16.7144C13.3612 16.7144 14.3572 16.2378 15.0155 15.7638C15.3464 15.5264 15.5915 15.2889 15.7509 15.1149C15.8258 15.0336 15.8968 14.9486 15.9635 14.8604L15.9695 14.8518C16.0655 14.7108 16.2136 14.6138 16.3812 14.5821C16.5488 14.5503 16.7221 14.5865 16.8631 14.6825C17.004 14.7785 17.101 14.9266 17.1328 15.0942C17.1645 15.2618 17.1284 15.4351 17.0324 15.5761L17.0306 15.5769V15.5786L17.0281 15.5812L17.0221 15.5898L17.0032 15.6164L16.9381 15.7021C16.8615 15.7989 16.7814 15.893 16.6981 15.9841C16.4168 16.2899 16.1046 16.5656 15.7664 16.8069C14.9349 17.4061 13.6818 18.0001 12.0001 18.0001C10.3184 18.0001 9.06521 17.4052 8.23378 16.8078C7.89518 16.566 7.58264 16.2897 7.30121 15.9832C7.18738 15.8577 7.07982 15.7267 6.97893 15.5906L6.97207 15.5821L6.97036 15.5786L6.9695 15.5769L6.96864 15.5761C6.87271 15.4351 6.8367 15.2618 6.86853 15.0944C6.90035 14.9269 6.99741 14.7789 7.13836 14.6829ZM12.0001 1.71436C6.31978 1.71436 1.71436 6.31978 1.71436 12.0001C1.71436 17.6804 6.31978 22.2858 12.0001 22.2858C17.6804 22.2858 22.2858 17.6804 22.2858 12.0001C22.2858 6.31978 17.6804 1.71436 12.0001 1.71436ZM3.00007 12.0001C3.00007 7.0295 7.0295 3.00007 12.0001 3.00007C16.9706 3.00007 21.0001 7.0295 21.0001 12.0001C21.0001 16.9706 16.9706 21.0001 12.0001 21.0001C7.0295 21.0001 3.00007 16.9706 3.00007 12.0001Z" fill="#344054"/>
</svg>
