<svg width="14" height="14" viewBox="0 0 14 14" fill="none" xmlns="http://www.w3.org/2000/svg">
<g clip-path="url(#clip0_248_1343)">
<path d="M6.99996 0.874957C7.5605 0.874957 8.10054 0.947874 8.62007 1.09371C9.13961 1.23954 9.62724 1.44462 10.083 1.70894C10.5387 1.97326 10.9534 2.29455 11.3271 2.67281C11.7008 3.05106 12.0198 3.4635 12.2841 3.91011C12.5485 4.35673 12.7558 4.84436 12.9062 5.373C13.0566 5.90165 13.1295 6.44397 13.125 6.99996C13.125 7.5605 13.052 8.10054 12.9062 8.62007C12.7604 9.13961 12.5553 9.62724 12.291 10.083C12.0266 10.5387 11.7054 10.9534 11.3271 11.3271C10.9489 11.7008 10.5364 12.0198 10.0898 12.2841C9.64319 12.5485 9.15556 12.7558 8.62691 12.9062C8.09826 13.0566 7.55595 13.1295 6.99996 13.125C6.43941 13.125 5.89937 13.052 5.37984 12.9062C4.86031 12.7604 4.37268 12.5553 3.91695 12.291C3.46122 12.0266 3.04651 11.7054 2.67281 11.3271C2.29911 10.9489 1.9801 10.5364 1.71578 10.0898C1.45145 9.64319 1.2441 9.15556 1.09371 8.62691C0.943316 8.09826 0.8704 7.55595 0.874957 6.99996C0.874957 6.43941 0.947874 5.89937 1.09371 5.37984C1.23954 4.86031 1.44462 4.37268 1.70894 3.91695C1.97326 3.46122 2.29455 3.04651 2.67281 2.67281C3.05106 2.29911 3.4635 1.9801 3.91011 1.71578C4.35673 1.45145 4.84436 1.2441 5.373 1.09371C5.90165 0.943316 6.44397 0.8704 6.99996 0.874957ZM6.99996 12.25C7.48303 12.25 7.94787 12.1884 8.39449 12.0654C8.8411 11.9423 9.25809 11.7646 9.64546 11.5322C10.0328 11.2998 10.3883 11.0263 10.7119 10.7119C11.0354 10.3974 11.3089 10.0442 11.5322 9.6523C11.7555 9.26037 11.9309 8.8411 12.0586 8.39449C12.1862 7.94787 12.25 7.48303 12.25 6.99996C12.25 6.51688 12.1884 6.05204 12.0654 5.60543C11.9423 5.15881 11.7646 4.74182 11.5322 4.35445C11.2998 3.96708 11.0263 3.61161 10.7119 3.28804C10.3974 2.96448 10.0442 2.69104 9.6523 2.46773C9.26037 2.24442 8.8411 2.06897 8.39449 1.94136C7.94787 1.81376 7.48303 1.74996 6.99996 1.74996C6.51688 1.74996 6.05204 1.81148 5.60543 1.93453C5.15881 2.05757 4.74182 2.23531 4.35445 2.46773C3.96708 2.70015 3.61161 2.97359 3.28804 3.28804C2.96448 3.6025 2.69104 3.95569 2.46773 4.34761C2.24442 4.73954 2.06897 5.15881 1.94136 5.60543C1.81376 6.05204 1.74996 6.51688 1.74996 6.99996C1.74996 7.48303 1.81148 7.94787 1.93453 8.39449C2.05757 8.8411 2.23531 9.25809 2.46773 9.64546C2.70015 10.0328 2.97359 10.3883 3.28804 10.7119C3.6025 11.0354 3.95569 11.3089 4.34761 11.5322C4.73954 11.7555 5.15881 11.9309 5.60543 12.0586C6.05204 12.1862 6.51688 12.25 6.99996 12.25ZM6.99996 4.37496C7.35998 4.37496 7.6995 4.44332 8.01851 4.58004C8.33752 4.71675 8.61552 4.90588 8.8525 5.14742C9.08948 5.38895 9.27632 5.66695 9.41304 5.9814C9.54976 6.29586 9.6204 6.63537 9.62496 6.99996C9.62496 7.35998 9.5566 7.6995 9.41988 8.01851C9.28316 8.33752 9.09403 8.61552 8.8525 8.8525C8.61096 9.08948 8.33296 9.27632 8.01851 9.41304C7.70406 9.54976 7.36454 9.6204 6.99996 9.62496C6.63993 9.62496 6.30041 9.5566 5.9814 9.41988C5.66239 9.28316 5.3844 9.09403 5.14742 8.8525C4.91044 8.61096 4.72359 8.33296 4.58687 8.01851C4.45015 7.70406 4.37951 7.36454 4.37496 6.99996C4.37496 6.63993 4.44332 6.30041 4.58004 5.9814C4.71675 5.66239 4.90588 5.3844 5.14742 5.14742C5.38895 4.91044 5.66695 4.72359 5.9814 4.58687C6.29586 4.45015 6.63537 4.37951 6.99996 4.37496Z" fill="#6172F3"/>
</g>
<defs>
<clipPath id="clip0_248_1343">
<rect width="14" height="14" fill="white"/>
</clipPath>
</defs>
</svg>
