<svg width="23" height="23" viewBox="0 0 23 23" fill="none" xmlns="http://www.w3.org/2000/svg">
<g clip-path="url(#clip0_430_2470)">
<path fill-rule="evenodd" clip-rule="evenodd" d="M16.0279 6.59968C18.6314 9.20324 18.6314 13.4242 16.0279 16.0278C13.4243 18.6313 9.20335 18.6313 6.59979 16.0278C3.99622 13.4242 3.99622 9.20324 6.59979 6.59968C9.20335 3.99611 13.4243 3.99611 16.0279 6.59968ZM17.3139 11.3137C17.315 12.1018 17.1603 12.8824 16.8587 13.6105C16.5571 14.3386 16.1145 14.9999 15.5565 15.5564C13.2134 17.8995 9.41431 17.8995 7.07119 15.5564C5.89975 14.3849 5.31403 12.8493 5.3138 11.3137H17.3139ZM17.2771 10.6472L5.35056 10.6472C5.4998 9.29388 6.10687 8.03218 7.07119 7.07108C9.41431 4.72797 13.2134 4.72796 15.5565 7.07108C16.5582 8.07282 17.1317 9.34066 17.2771 10.6472Z" fill="#667085"/>
</g>
<defs>
<clipPath id="clip0_430_2470">
<rect width="16" height="16" fill="white" transform="translate(0 11.3137) rotate(-45)"/>
</clipPath>
</defs>
</svg>
