<svg width="16" height="16" viewBox="0 0 16 16" fill="none" xmlns="http://www.w3.org/2000/svg">
<path fill-rule="evenodd" clip-rule="evenodd" d="M5.66658 7.99992C6.95559 7.99992 7.99992 6.95559 7.99992 5.66659C7.99992 4.37759 6.95559 3.33325 5.66658 3.33325C4.37759 3.33325 3.33325 4.37759 3.33325 5.66659C3.33325 6.95559 4.37759 7.99992 5.66658 7.99992ZM7.33325 5.66659C7.33325 6.58759 6.58758 7.33325 5.66658 7.33325C4.74558 7.33325 3.99992 6.58759 3.99992 5.66659C3.99992 4.74559 4.74558 3.99992 5.66658 3.99992C6.58758 3.99992 7.33325 4.74559 7.33325 5.66659ZM1.33325 12.6666V10.7999C1.33325 9.38125 4.22025 8.66658 5.66658 8.66658C6.62858 8.66658 8.22825 8.98292 9.19159 9.61225C9.87825 9.42658 10.6313 9.33325 11.1666 9.33325C11.7859 9.33325 12.6169 9.45792 13.3033 9.70992C13.6453 9.83592 13.9729 10.0013 14.2206 10.2153C14.4703 10.4309 14.6666 10.7226 14.6666 11.0886V12.6666H1.33325ZM1.99992 10.7999C1.99992 10.6943 2.04859 10.5496 2.25525 10.3616C2.46625 10.1696 2.79092 9.98358 3.20192 9.82159C4.02559 9.49658 5.02559 9.33325 5.66658 9.33325C6.30758 9.33325 7.30792 9.49658 8.13092 9.82159C8.54225 9.98358 8.86692 10.1696 9.07758 10.3616C9.28458 10.5496 9.33325 10.6943 9.33325 10.7999V11.9999H1.99992V10.7999ZM9.78425 10.1566C10.2886 10.0523 10.7943 9.99992 11.1666 9.99992C11.7156 9.99992 12.4676 10.1133 13.0733 10.3359C13.3763 10.4473 13.6213 10.5786 13.7849 10.7199C13.9466 10.8596 13.9999 10.9823 13.9999 11.0889V11.9999H9.99992V10.7999C9.99992 10.5666 9.92159 10.3516 9.78425 10.1566ZM12.9999 6.83325C12.9999 7.84625 12.1796 8.66658 11.1666 8.66658C10.6804 8.66658 10.214 8.47343 9.87022 8.12961C9.52641 7.7858 9.33325 7.31948 9.33325 6.83325C9.33325 5.82025 10.1536 4.99992 11.1666 4.99992C12.1796 4.99992 12.9999 5.82025 12.9999 6.83325ZM11.1666 7.99992C11.8113 7.99992 12.3333 7.47792 12.3333 6.83325C12.3333 6.18859 11.8113 5.66659 11.1666 5.66659C10.8572 5.66659 10.5604 5.7895 10.3416 6.00829C10.1228 6.22709 9.99992 6.52383 9.99992 6.83325C9.99992 7.47792 10.5219 7.99992 11.1666 7.99992Z" fill="#344054"/>
</svg>
