<svg width="20" height="20" viewBox="0 0 20 20" fill="none" xmlns="http://www.w3.org/2000/svg">
<path d="M4.99999 15.833V8.33301C4.99999 7.00693 5.52678 5.73516 6.46446 4.79747C7.40214 3.85979 8.67391 3.33301 9.99999 3.33301C11.3261 3.33301 12.5978 3.85979 13.5355 4.79747C14.4732 5.73516 15 7.00693 15 8.33301V15.833M4.99999 15.833H15M4.99999 15.833H3.33333M15 15.833H16.6667M9.16666 18.333H10.8333" stroke="#344054" stroke-width="0.833333" stroke-linecap="round" stroke-linejoin="round"/>
<path d="M9.99999 3.33317C10.4602 3.33317 10.8333 2.96007 10.8333 2.49984C10.8333 2.0396 10.4602 1.6665 9.99999 1.6665C9.53975 1.6665 9.16666 2.0396 9.16666 2.49984C9.16666 2.96007 9.53975 3.33317 9.99999 3.33317Z" stroke="#344054" stroke-width="0.833333"/>
</svg>
