<svg width="27" height="28" viewBox="0 0 27 28" fill="none" xmlns="http://www.w3.org/2000/svg">
<path fill-rule="evenodd" clip-rule="evenodd" d="M12.9283 2.23304C13.3234 1.92574 13.8767 1.92574 14.2718 2.23304L24.1191 9.89208C24.3856 10.0994 24.5415 10.4181 24.5415 10.7557V22.7914C24.5415 23.6619 24.1957 24.4968 23.5801 25.1124C22.9645 25.728 22.1296 26.0738 21.2591 26.0738H5.94101C5.07045 26.0738 4.23555 25.728 3.61997 25.1124C3.0044 24.4968 2.65857 23.6619 2.65857 22.7914V10.7557C2.65857 10.4181 2.81446 10.0994 3.08098 9.89208L12.9283 2.23304ZM4.84686 11.2909V22.7914C4.84686 23.0816 4.96214 23.3599 5.16733 23.565C5.37253 23.7702 5.65083 23.8855 5.94101 23.8855H21.2591C21.5493 23.8855 21.8276 23.7702 22.0328 23.565C22.238 23.3599 22.3532 23.0816 22.3532 22.7914V11.2909L13.6 4.48284L4.84686 11.2909Z" fill="#667085"/>
<path fill-rule="evenodd" clip-rule="evenodd" d="M9.22339 14.0382C9.22339 13.4339 9.71326 12.944 10.3175 12.944H16.8824C17.4867 12.944 17.9766 13.4339 17.9766 14.0382V24.9797C17.9766 25.5839 17.4867 26.0738 16.8824 26.0738C16.2781 26.0738 15.7883 25.5839 15.7883 24.9797V15.1323H11.4117V24.9797C11.4117 25.5839 10.9218 26.0738 10.3175 26.0738C9.71326 26.0738 9.22339 25.5839 9.22339 24.9797V14.0382Z" fill="#667085"/>
</svg>
