<svg width="16" height="18" viewBox="0 0 16 18" fill="none" xmlns="http://www.w3.org/2000/svg">
<g clip-path="url(#clip0_284_1496)">
<path d="M11.8575 6.48136C13.0249 7.30967 14.455 7.79704 15.9995 7.79704V4.8469C15.7072 4.84701 15.4157 4.81673 15.1297 4.75653V7.07872C13.5852 7.07872 12.1553 6.59141 10.9877 5.76316V11.7836C10.9877 14.7954 8.52792 17.2367 5.49392 17.2367C4.36186 17.2367 3.30961 16.897 2.43555 16.3143C3.43317 17.3269 4.82442 17.9549 6.36355 17.9549C9.3978 17.9549 11.8576 15.5136 11.8576 12.5017V6.48136H11.8575ZM12.9306 3.50503C12.334 2.85809 11.9422 2.02202 11.8575 1.09769V0.718262H11.0332C11.2407 1.89304 11.9485 2.8967 12.9306 3.50503ZM4.35455 14.0033C4.02119 13.5695 3.84101 13.0388 3.84186 12.4931C3.84186 11.1157 4.96692 9.99881 6.35498 9.99881C6.61362 9.99867 6.87074 10.0381 7.1173 10.1157V7.09957C6.82917 7.0604 6.53842 7.04371 6.2478 7.04985V9.39742C6.00112 9.31981 5.74387 9.28041 5.48511 9.28061C4.09711 9.28061 2.97211 10.3974 2.97211 11.775C2.97211 12.7491 3.53442 13.5924 4.35455 14.0033Z" fill="#FF004F"/>
<path d="M10.9875 5.7631C12.1552 6.59135 13.585 7.07866 15.1295 7.07866V4.75647C14.2674 4.57417 13.5042 4.12703 12.9304 3.50503C11.9482 2.89663 11.2405 1.89298 11.033 0.718262H8.86782V12.5016C8.86288 13.8753 7.73975 14.9876 6.35469 14.9876C5.53857 14.9876 4.81344 14.6015 4.35425 14.0032C3.53425 13.5924 2.97188 12.749 2.97188 11.775C2.97188 10.3975 4.09688 9.28068 5.48488 9.28068C5.75082 9.28068 6.00713 9.32177 6.24757 9.39749V7.04992C3.26682 7.11106 0.869629 9.52852 0.869629 12.5017C0.869629 13.9859 1.46657 15.3313 2.43544 16.3145C3.3095 16.897 4.36169 17.2368 5.49382 17.2368C8.52788 17.2368 10.9876 14.7953 10.9876 11.7836L10.9875 5.7631Z" fill="black"/>
<path d="M15.1297 4.75634V4.12858C14.3523 4.1297 13.5902 3.9136 12.9306 3.50497C13.5144 4.13945 14.2833 4.57698 15.1297 4.75647M11.0331 0.718138C11.0134 0.605891 10.9982 0.492895 10.9876 0.379428V0H7.998V11.7835C7.99325 13.1571 6.87012 14.2693 5.485 14.2693C5.09233 14.2699 4.70502 14.1788 4.35437 14.0033C4.81356 14.6014 5.53869 14.9875 6.35481 14.9875C7.73981 14.9875 8.86306 13.8753 8.86794 12.5016V0.7182L11.0331 0.718138ZM6.24787 7.04979V6.38137C5.99805 6.3475 5.7462 6.33054 5.49406 6.3306C2.45969 6.3306 0 8.77202 0 11.7835C0 13.6716 0.966687 15.3355 2.43569 16.3143C1.46681 15.3312 0.869875 13.9857 0.869875 12.5016C0.869875 9.52845 3.267 7.11093 6.24787 7.04979Z" fill="#00F2EA"/>
</g>
<defs>
<clipPath id="clip0_284_1496">
<rect width="16" height="18" fill="white"/>
</clipPath>
</defs>
</svg>
