<svg width="38" height="38" viewBox="0 0 38 38" fill="none" xmlns="http://www.w3.org/2000/svg">
<path d="M30.2497 18.1228C30.2569 18.6687 30.1433 19.2093 29.9172 19.7062C29.6797 20.2318 29.3155 20.6878 28.8564 21.0362L13.5772 32.927C13.0393 33.3371 12.3979 33.5893 11.7247 33.6553H11.3605C10.8101 33.6555 10.2675 33.5253 9.7772 33.2753C9.1822 32.9832 8.67868 32.5335 8.32136 31.9752C7.96405 31.4169 7.76662 30.7713 7.75053 30.1087V7.94201C7.74725 7.28769 7.92833 6.64568 8.27303 6.08951C8.60661 5.53338 9.08443 5.07787 9.65586 4.77125C10.2273 4.46463 10.871 4.31832 11.5189 4.34784C12.1712 4.37951 12.8045 4.58218 13.3555 4.93368L28.6505 15.1303C29.116 15.4533 29.5055 15.8745 29.7905 16.3653C30.0914 16.9037 30.2497 17.5069 30.2497 18.1228Z" fill="#53389E"/>
</svg>
