<svg width="20" height="20" viewBox="0 0 20 20" fill="none" xmlns="http://www.w3.org/2000/svg">
<path d="M10.0233 14.3583C10.2078 14.3583 10.3633 14.295 10.49 14.1683C10.6167 14.0417 10.68 13.8861 10.68 13.7017C10.68 13.5172 10.6161 13.3617 10.4883 13.235C10.3617 13.1083 10.2061 13.045 10.0217 13.045C9.83722 13.045 9.68167 13.1086 9.555 13.2358C9.42833 13.3631 9.36528 13.5186 9.36583 13.7025C9.36583 13.8869 9.42917 14.0425 9.55583 14.1692C9.68361 14.2958 9.83944 14.3592 10.0233 14.3592M10.0025 17.5C8.96583 17.5 7.99083 17.3033 7.0775 16.91C6.16472 16.5161 5.37056 15.9817 4.695 15.3067C4.01944 14.6317 3.48472 13.8383 3.09083 12.9267C2.69694 12.015 2.5 11.0403 2.5 10.0025C2.5 8.96472 2.69694 7.98972 3.09083 7.0775C3.48417 6.16472 4.01778 5.37056 4.69167 4.695C5.36556 4.01944 6.15917 3.48472 7.0725 3.09083C7.98583 2.69694 8.96083 2.5 9.9975 2.5C11.0342 2.5 12.0092 2.69694 12.9225 3.09083C13.8353 3.48417 14.6294 4.01806 15.305 4.6925C15.9806 5.36694 16.5153 6.16056 16.9092 7.07333C17.3031 7.98611 17.5 8.96083 17.5 9.9975C17.5 11.0342 17.3033 12.0092 16.91 12.9225C16.5167 13.8358 15.9822 14.63 15.3067 15.305C14.6311 15.98 13.8378 16.5147 12.9267 16.9092C12.0156 17.3036 11.0408 17.5006 10.0025 17.5ZM10 16.6667C11.8611 16.6667 13.4375 16.0208 14.7292 14.7292C16.0208 13.4375 16.6667 11.8611 16.6667 10C16.6667 8.13889 16.0208 6.5625 14.7292 5.27083C13.4375 3.97917 11.8611 3.33333 10 3.33333C8.13889 3.33333 6.5625 3.97917 5.27083 5.27083C3.97917 6.5625 3.33333 8.13889 3.33333 10C3.33333 11.8611 3.97917 13.4375 5.27083 14.7292C6.5625 16.0208 8.13889 16.6667 10 16.6667ZM10.0517 6.44917C10.4739 6.44917 10.8372 6.58 11.1417 6.84167C11.4472 7.10333 11.6 7.43083 11.6 7.82417C11.6 8.12972 11.5139 8.40583 11.3417 8.6525C11.1706 8.89917 10.9722 9.12667 10.7467 9.335C10.4611 9.59389 10.2097 9.87861 9.9925 10.1892C9.77528 10.5003 9.65056 10.8428 9.61833 11.2167C9.60778 11.3256 9.64194 11.4167 9.72083 11.49C9.79861 11.5628 9.89028 11.5992 9.99583 11.5992C10.1075 11.5992 10.2017 11.5619 10.2783 11.4875C10.3544 11.4125 10.4028 11.3242 10.4233 11.2225C10.4789 10.9419 10.5906 10.6922 10.7583 10.4733C10.9256 10.255 11.1094 10.0483 11.31 9.85333C11.5983 9.56667 11.8542 9.25417 12.0775 8.91583C12.3014 8.57806 12.4133 8.20111 12.4133 7.785C12.4133 7.17333 12.1811 6.66833 11.7167 6.27C11.2528 5.87222 10.7083 5.67333 10.0833 5.67333C9.62 5.67333 9.18861 5.78167 8.78917 5.99833C8.39028 6.215 8.07111 6.515 7.83167 6.89833C7.77722 6.99056 7.75972 7.08583 7.77917 7.18417C7.79861 7.2825 7.85139 7.35722 7.9375 7.40833C8.0475 7.46611 8.15861 7.47944 8.27083 7.44833C8.38306 7.41722 8.48194 7.35278 8.5675 7.255C8.7525 7.025 8.97028 6.83333 9.22083 6.68C9.47083 6.52556 9.74778 6.44917 10.0517 6.44917Z" fill="#344054"/>
</svg>
