<svg width="20" height="20" viewBox="0 0 20 20" fill="none" xmlns="http://www.w3.org/2000/svg">
<path d="M4.1665 4.16675H14.9998C15.6629 4.16675 16.2988 4.43014 16.7676 4.89898C17.2364 5.36782 17.4998 6.00371 17.4998 6.66675V14.1667C17.4998 14.8298 17.2364 15.4657 16.7676 15.9345C16.2988 16.4034 15.6629 16.6667 14.9998 16.6667H4.1665C3.50346 16.6667 2.86758 16.4034 2.39874 15.9345C1.9299 15.4657 1.6665 14.8298 1.6665 14.1667V6.66675C1.6665 6.00371 1.9299 5.36782 2.39874 4.89898C2.86758 4.43014 3.50346 4.16675 4.1665 4.16675ZM4.1665 5.00008C3.74984 5.00008 3.38317 5.14175 3.09984 5.39175L9.58317 9.58341L16.0665 5.39175C15.7832 5.14175 15.4165 5.00008 14.9998 5.00008H4.1665ZM9.58317 10.5917L2.60817 6.06675C2.5415 6.25008 2.49984 6.45841 2.49984 6.66675V14.1667C2.49984 14.6088 2.67543 15.0327 2.98799 15.3453C3.30055 15.6578 3.72448 15.8334 4.1665 15.8334H14.9998C15.4419 15.8334 15.8658 15.6578 16.1783 15.3453C16.4909 15.0327 16.6665 14.6088 16.6665 14.1667V6.66675C16.6665 6.45841 16.6248 6.25008 16.5582 6.06675L9.58317 10.5917Z" fill="white"/>
</svg>
