<svg width="27" height="27" viewBox="0 0 27 27" fill="none" xmlns="http://www.w3.org/2000/svg">
<path d="M20.7833 4.1584H19.7V1.99173H17.5333V4.1584H8.86662V1.99173H6.69995V4.1584H5.61662C5.04198 4.1584 4.49088 4.38667 4.08455 4.793C3.67822 5.19933 3.44995 5.75043 3.44995 6.32506V21.4917C3.44995 22.0664 3.67822 22.6175 4.08455 23.0238C4.49088 23.4301 5.04198 23.6584 5.61662 23.6584H20.7833C21.9858 23.6584 22.95 22.6942 22.95 21.4917V6.32506C22.95 5.75043 22.7217 5.19933 22.3153 4.793C21.909 4.38667 21.3579 4.1584 20.7833 4.1584ZM20.7833 21.4917H5.61662V10.6584H20.7833V21.4917ZM20.7833 8.49173H5.61662V6.32506H20.7833V8.49173Z" fill="#667085"/>
</svg>
