<svg width="26" height="27" viewBox="0 0 26 27" fill="none" xmlns="http://www.w3.org/2000/svg">
<g clip-path="url(#clip0_230_1338)">
<path d="M18.015 7.85039C19.1236 7.69136 20.2536 7.90529 21.2279 8.45781C22.2038 9.01126 22.9686 9.87363 23.4008 10.909C23.8328 11.9442 23.9083 13.0937 23.6156 14.1766C23.3442 15.1807 22.7694 16.0739 21.974 16.7381C23.1814 17.3271 24.2077 18.234 24.9398 19.3641C25.716 20.5623 26.1285 21.9599 26.1283 23.3875C26.1283 23.6428 26.0266 23.8877 25.8461 24.0682C25.6656 24.2486 25.4206 24.3504 25.1654 24.3504C24.9103 24.3503 24.6652 24.2486 24.4847 24.0682C24.3044 23.8877 24.2035 23.6427 24.2035 23.3875C24.2039 22.2108 23.8244 21.0653 23.1224 20.1209C22.4204 19.1766 21.4329 18.484 20.306 18.1453L19.7279 17.9715L19.6205 17.9393V15.9207L19.7025 15.8787L20.1469 15.6521L20.3763 15.5232C20.8977 15.2016 21.3156 14.733 21.5746 14.1736C21.8704 13.5347 21.9423 12.8145 21.7787 12.1297C21.615 11.4447 21.2251 10.8345 20.6722 10.3982C20.1193 9.96198 19.4352 9.7252 18.7308 9.72539C18.5798 9.72539 18.4316 9.73449 18.2865 9.75468C18.1595 9.77736 18.0295 9.77455 17.9037 9.7459C17.7778 9.71716 17.6588 9.66332 17.5541 9.58769C17.4493 9.51198 17.3602 9.4161 17.2933 9.30547C17.2266 9.19492 17.1827 9.07198 17.1644 8.94414C17.1461 8.81618 17.1537 8.68527 17.1869 8.56035C17.2201 8.43552 17.2785 8.31855 17.3578 8.2166C17.4371 8.11468 17.536 8.02945 17.6488 7.9666C17.7334 7.91947 17.8249 7.88588 17.9193 7.86601L18.015 7.85039ZM9.58044 3.4705C10.6329 3.44131 11.6752 3.68433 12.6058 4.17656C13.5366 4.66889 14.3248 5.39358 14.8929 6.28008C15.4611 7.16651 15.7904 8.1849 15.849 9.23613C15.9076 10.2874 15.693 11.336 15.2269 12.2801C14.8021 13.1406 14.1791 13.8854 13.4135 14.4598C15.1607 15.1565 16.676 16.3363 17.7787 17.865C18.9353 19.4686 19.5857 21.382 19.6459 23.3582V23.3641C19.6429 23.6126 19.5437 23.8508 19.3695 24.0281C19.1954 24.2053 18.9596 24.3087 18.7113 24.3162C18.4629 24.3237 18.221 24.2347 18.0365 24.0682C17.8521 23.9017 17.7391 23.6704 17.7211 23.4227L17.7201 23.4158V23.4148C17.6565 21.3435 16.7896 19.3783 15.3021 17.9353C13.8141 16.4921 11.8223 15.6844 9.74939 15.6844C7.67648 15.6844 5.68464 16.4921 4.19666 17.9353C2.70895 19.3785 1.84106 21.3441 1.77771 23.4158V23.4187C1.76486 23.6701 1.65407 23.9063 1.46912 24.077C1.28417 24.2476 1.03999 24.3392 0.788452 24.3318C0.536943 24.3244 0.298017 24.2191 0.123413 24.0379C-0.051143 23.8567 -0.148032 23.6137 -0.146118 23.3621V23.3592C-0.086115 21.3828 0.564553 19.4697 1.72107 17.866C2.82352 16.3373 4.33827 15.1566 6.08533 14.4598C5.36569 13.9197 4.7716 13.2289 4.34998 12.4314C3.88464 11.5513 3.64176 10.5706 3.64197 9.575C3.64219 8.52206 3.91386 7.48674 4.43201 6.57011C4.95016 5.65351 5.69699 4.88672 6.599 4.34355C7.50098 3.80042 8.52797 3.49973 9.58044 3.4705ZM9.75037 5.3914C8.64099 5.3914 7.57686 5.83261 6.79236 6.61699C6.00785 7.4015 5.56679 8.46553 5.56677 9.575C5.56677 10.6845 6.00783 11.7485 6.79236 12.533C7.57687 13.3174 8.64096 13.7586 9.75037 13.7586C10.8597 13.7585 11.9239 13.3174 12.7084 12.533C13.4928 11.7485 13.933 10.6844 13.933 9.575C13.933 8.46561 13.4928 7.40149 12.7084 6.61699C11.9239 5.83256 10.8597 5.39151 9.75037 5.3914Z" fill="#667085" stroke="#667085" stroke-width="0.3"/>
</g>
<defs>
<clipPath id="clip0_230_1338">
<rect width="26" height="26" fill="white" transform="translate(0 0.908394)"/>
</clipPath>
</defs>
</svg>
