<svg width="14" height="14" viewBox="0 0 14 14" fill="none" xmlns="http://www.w3.org/2000/svg">
<g clip-path="url(#clip0_347_1487)">
<path fill-rule="evenodd" clip-rule="evenodd" d="M3.80975 10.8097L10.8097 3.80975C10.8504 3.76907 10.8827 3.72078 10.9047 3.66764C10.9267 3.61449 10.9381 3.55753 10.9381 3.5C10.9381 3.44247 10.9267 3.38551 10.9047 3.33236C10.8827 3.27922 10.8504 3.23093 10.8097 3.19025C10.7691 3.14957 10.7208 3.11731 10.6676 3.09529C10.6145 3.07328 10.5575 3.06195 10.5 3.06195C10.4425 3.06195 10.3855 3.07328 10.3324 3.09529C10.2792 3.11731 10.2309 3.14957 10.1903 3.19025L3.19025 10.1903C3.14957 10.2309 3.11731 10.2792 3.09529 10.3324C3.07328 10.3855 3.06195 10.4425 3.06195 10.5C3.06195 10.5575 3.07328 10.6145 3.09529 10.6676C3.11731 10.7208 3.14957 10.7691 3.19025 10.8097C3.23093 10.8504 3.27922 10.8827 3.33236 10.9047C3.38551 10.9267 3.44247 10.9381 3.5 10.9381C3.55753 10.9381 3.61449 10.9267 3.66764 10.9047C3.72078 10.8827 3.76907 10.8504 3.80975 10.8097ZM0.875 9.1875C0.875 9.07147 0.921094 8.96019 1.00314 8.87814C1.08519 8.79609 1.19647 8.75 1.3125 8.75C1.42853 8.75 1.53981 8.79609 1.62186 8.87814C1.70391 8.96019 1.75 9.07147 1.75 9.1875V11.8125C1.75 11.9285 1.79609 12.0398 1.87814 12.1219C1.96019 12.2039 2.07147 12.25 2.1875 12.25H4.8125C4.92853 12.25 5.03981 12.2961 5.12186 12.3781C5.20391 12.4602 5.25 12.5715 5.25 12.6875C5.25 12.8035 5.20391 12.9148 5.12186 12.9969C5.03981 13.0789 4.92853 13.125 4.8125 13.125H2.1875C1.8394 13.125 1.50556 12.9867 1.25942 12.7406C1.01328 12.4944 0.875 12.1606 0.875 11.8125V9.1875ZM13.125 4.8125C13.125 4.92853 13.0789 5.03981 12.9969 5.12186C12.9148 5.20391 12.8035 5.25 12.6875 5.25C12.5715 5.25 12.4602 5.20391 12.3781 5.12186C12.2961 5.03981 12.25 4.92853 12.25 4.8125V2.1875C12.25 2.07147 12.2039 1.96019 12.1219 1.87814C12.0398 1.79609 11.9285 1.75 11.8125 1.75H9.1875C9.07147 1.75 8.96019 1.70391 8.87814 1.62186C8.79609 1.53981 8.75 1.42853 8.75 1.3125C8.75 1.19647 8.79609 1.08519 8.87814 1.00314C8.96019 0.921094 9.07147 0.875 9.1875 0.875H11.8125C12.1606 0.875 12.4944 1.01328 12.7406 1.25942C12.9867 1.50556 13.125 1.8394 13.125 2.1875V4.8125Z" fill="white"/>
</g>
<defs>
<clipPath id="clip0_347_1487">
<rect width="14" height="14" fill="white"/>
</clipPath>
</defs>
</svg>
