<svg width="20" height="20" viewBox="0 0 20 20" fill="none" xmlns="http://www.w3.org/2000/svg">
<path d="M18.1633 14.2837L15.2727 11.3931L12.4055 1.92355C12.3324 1.68246 12.1951 1.46579 12.0083 1.29678C11.8214 1.12776 11.5922 1.01277 11.345 0.964121C11.0978 0.915471 10.842 0.934999 10.6051 1.02061C10.3682 1.10622 10.159 1.2547 9.99999 1.45011C9.841 1.2547 9.63183 1.10622 9.3949 1.02061C9.15797 0.934999 8.9022 0.915471 8.65502 0.964121C8.40783 1.01277 8.17855 1.12776 7.99173 1.29678C7.80491 1.46579 7.66761 1.68246 7.59453 1.92355L4.72343 11.397L1.83671 14.2876C1.74931 14.3747 1.67997 14.4782 1.63265 14.5922C1.58533 14.7061 1.56097 14.8283 1.56097 14.9517C1.56097 15.0751 1.58533 15.1972 1.63265 15.3112C1.67997 15.4251 1.74931 15.5286 1.83671 15.6157L4.39062 18.1634C4.47772 18.2508 4.58121 18.3201 4.69516 18.3675C4.80912 18.4148 4.93129 18.4391 5.05468 18.4391C5.17807 18.4391 5.30025 18.4148 5.4142 18.3675C5.52815 18.3201 5.63165 18.2508 5.71874 18.1634L9.49062 14.3907C9.69622 14.1857 9.86884 13.9501 10.0023 13.6923C10.1358 13.9501 10.3085 14.1857 10.5141 14.3907L14.2859 18.1634C14.373 18.2508 14.4765 18.3201 14.5905 18.3675C14.7044 18.4148 14.8266 18.4391 14.95 18.4391C15.0734 18.4391 15.1956 18.4148 15.3095 18.3675C15.4235 18.3201 15.527 18.2508 15.6141 18.1634L18.168 15.6095C18.3431 15.4331 18.4411 15.1943 18.4402 14.9456C18.4393 14.697 18.3397 14.4589 18.1633 14.2837ZM5.27265 17.7212C5.24363 17.7503 5.20916 17.7733 5.17123 17.789C5.13329 17.8048 5.09262 17.8129 5.05156 17.8129C5.01049 17.8129 4.96983 17.8048 4.93189 17.789C4.89395 17.7733 4.85949 17.7503 4.83046 17.7212L2.2789 15.1681C2.24985 15.1391 2.2268 15.1046 2.21107 15.0667C2.19534 15.0287 2.18725 14.9881 2.18725 14.947C2.18725 14.9059 2.19534 14.8653 2.21107 14.8273C2.2268 14.7894 2.24985 14.7549 2.2789 14.7259L3.49062 13.5157L6.48437 16.5095L5.27265 17.7212ZM9.04531 13.9493L6.92812 16.0673L3.93281 13.072L5.22031 11.7837C5.25696 11.7475 5.28384 11.7026 5.29843 11.6532L8.18906 2.1048C8.24011 1.92679 8.35407 1.77338 8.50975 1.67309C8.66543 1.57281 8.85224 1.53248 9.03543 1.55961C9.21862 1.58673 9.38572 1.67946 9.50566 1.82056C9.62561 1.96165 9.69022 2.14151 9.68749 2.32668V12.4048C9.68806 12.6918 9.63174 12.9761 9.52178 13.2412C9.41182 13.5063 9.25041 13.747 9.04687 13.9493H9.04531ZM10.3109 12.4025V2.32433C10.3108 2.14106 10.3766 1.96386 10.4963 1.82505C10.616 1.68624 10.7816 1.59508 10.9629 1.56818C11.1441 1.54128 11.3291 1.58044 11.4839 1.67851C11.6387 1.77659 11.7531 1.92705 11.8062 2.10246L14.6969 11.6509C14.7115 11.7003 14.7383 11.7452 14.775 11.7814L16.1328 13.1392L13.0719 16.0696L10.9531 13.9493C10.7493 13.7467 10.5877 13.5056 10.4778 13.2401C10.3678 12.9746 10.3116 12.6899 10.3125 12.4025H10.3109ZM17.7195 15.1681L15.1664 17.7212C15.1374 17.7503 15.1029 17.7733 15.065 17.789C15.027 17.8048 14.9864 17.8129 14.9453 17.8129C14.9042 17.8129 14.8636 17.8048 14.8256 17.789C14.7877 17.7733 14.7532 17.7503 14.7242 17.7212L13.5156 16.5142L16.5766 13.5837L17.718 14.7259C17.7472 14.7547 17.7705 14.789 17.7865 14.8268C17.8025 14.8647 17.8109 14.9053 17.8112 14.9463C17.8115 14.9874 17.8037 15.0281 17.7882 15.0662C17.7727 15.1042 17.7499 15.1389 17.7211 15.1681H17.7195Z" fill="#344054"/>
</svg>
