<svg width="20" height="20" viewBox="0 0 20 20" fill="none" xmlns="http://www.w3.org/2000/svg">
<path d="M10.0618 2.70834V13.1067M5.1585 8.72084L9.17683 12.7392C9.421 12.9833 9.741 13.1058 10.0602 13.1058M14.9627 8.72084L10.9443 12.7392C10.7002 12.9833 10.3802 13.1058 10.061 13.1058M17.2918 13.7625V14.5417C17.2918 14.9028 17.2207 15.2604 17.0825 15.5941C16.9443 15.9277 16.7417 16.2309 16.4864 16.4862C16.231 16.7416 15.9279 16.9441 15.5942 17.0823C15.2606 17.2205 14.903 17.2917 14.5418 17.2917H5.4585C5.09736 17.2917 4.73976 17.2205 4.40612 17.0823C4.07247 16.9441 3.76931 16.7416 3.51395 16.4862C3.25859 16.2309 3.05603 15.9277 2.91783 15.5941C2.77963 15.2604 2.7085 14.9028 2.7085 14.5417V13.7625" stroke="#344054" stroke-width="1.5" stroke-linecap="round" stroke-linejoin="round"/>
</svg>
