<svg width="20" height="20" viewBox="0 0 20 20" fill="none" xmlns="http://www.w3.org/2000/svg">
<path d="M11.0497 1.56656C11.0629 1.48551 11.0919 1.40785 11.1351 1.33802C11.1782 1.26818 11.2348 1.20754 11.3014 1.15956C11.368 1.11158 11.4435 1.0772 11.5234 1.05838C11.6033 1.03956 11.6862 1.03668 11.7672 1.04989C11.7889 1.05406 11.8564 1.06656 11.8922 1.07489C11.9639 1.09045 12.0616 1.11573 12.1855 1.15073C12.433 1.22323 12.7789 1.34239 13.1939 1.53156C14.0239 1.91239 15.128 2.57823 16.2747 3.72489C17.4214 4.87156 18.0872 5.97573 18.468 6.80656C18.658 7.22073 18.7764 7.56656 18.8489 7.81406C18.8852 7.93918 18.9166 8.06566 18.943 8.19323L18.9472 8.21823C18.9749 8.38339 18.9365 8.5528 18.8403 8.68987C18.744 8.82693 18.5978 8.92063 18.433 8.95073C18.2699 8.97722 18.1028 8.938 17.9685 8.84163C17.8342 8.74527 17.7435 8.59962 17.7164 8.43656L17.7047 8.37989C17.6885 8.30707 17.6699 8.23481 17.6489 8.16323C17.5637 7.87732 17.4578 7.59798 17.3322 7.32739C17.0072 6.61906 16.423 5.63989 15.3905 4.60906C14.3597 3.57739 13.3814 2.99239 12.6722 2.66739C12.4016 2.54176 12.1223 2.43593 11.8364 2.35073C11.7487 2.3261 11.6603 2.30387 11.5714 2.28406C11.4079 2.2566 11.2618 2.16618 11.1643 2.0322C11.0667 1.89822 11.0256 1.73135 11.0497 1.56739" fill="white"/>
<path fill-rule="evenodd" clip-rule="evenodd" d="M11.2381 4.44157C11.2836 4.28224 11.3906 4.14752 11.5355 4.06704C11.6803 3.98656 11.8512 3.96691 12.0106 4.01241H12.0131L12.0156 4.01407L12.0222 4.01574L12.0389 4.02074C12.0517 4.02463 12.0672 4.03018 12.0856 4.0374C12.1234 4.04963 12.1725 4.06879 12.2331 4.09491C12.3547 4.14657 12.5206 4.22741 12.7247 4.34741C13.1331 4.58907 13.6889 4.98991 14.3431 5.64407C14.9972 6.29824 15.3981 6.85491 15.6397 7.26324C15.7606 7.46657 15.8406 7.63241 15.8931 7.75491C15.9202 7.81858 15.9447 7.88336 15.9664 7.94907L15.9722 7.96574L15.9739 7.97157V7.97407L15.9747 7.97574C16.0191 8.13404 15.9994 8.3043 15.9197 8.44812C15.8401 8.59195 15.707 8.69861 15.5492 8.74497C15.3915 8.79134 15.2218 8.77369 15.077 8.69584C14.9322 8.61799 14.8239 8.48622 14.7756 8.32907L14.7731 8.31991L14.7439 8.24657C14.6907 8.1276 14.6306 8.01184 14.5639 7.89991C14.3781 7.58574 14.0431 7.11157 13.4597 6.52824C12.8764 5.94491 12.4014 5.60907 12.0881 5.42324C11.9531 5.34402 11.8128 5.27441 11.6681 5.21491L11.6589 5.21157C11.5017 5.16424 11.3694 5.05693 11.2906 4.91284C11.2119 4.76876 11.193 4.59947 11.2381 4.44157ZM4.17224 3.67241C5.57224 2.27241 7.93557 2.37907 8.91057 4.12574L9.45141 5.09491C10.0872 6.23574 9.81641 7.67491 8.88474 8.61824C8.82985 8.70145 8.79979 8.79857 8.79807 8.89824C8.78724 9.11157 8.86307 9.60574 9.62891 10.3707C10.3939 11.1357 10.8872 11.2124 11.1014 11.2016C11.2013 11.2003 11.2987 11.1705 11.3822 11.1157C12.3247 10.1832 13.7647 9.91241 14.9047 10.5491L15.8739 11.0899C17.6206 12.0649 17.7272 14.4274 16.3272 15.8274C15.5781 16.5757 14.5831 17.2416 13.4122 17.2857C11.6789 17.3516 8.79891 16.9041 5.94724 14.0524C3.09641 11.2007 2.64807 8.32157 2.71391 6.58741C2.75807 5.41741 3.42391 4.42074 4.17224 3.67241ZM7.81891 4.73491C7.31891 3.84074 5.97724 3.63491 5.05641 4.55657C4.41057 5.20241 3.98974 5.91491 3.96307 6.63491C3.90807 8.08074 4.26557 10.6016 6.83141 13.1682C9.39724 15.7349 11.9189 16.0916 13.3647 16.0366C14.0839 16.0099 14.7981 15.5891 15.4431 14.9432C16.3647 14.0216 16.1597 12.6807 15.2647 12.1816L14.2956 11.6399C13.6931 11.3041 12.8456 11.4191 12.2514 12.0132C12.1931 12.0716 11.8214 12.4182 11.1622 12.4499C10.4872 12.4832 9.66974 12.1799 8.74557 11.2549C7.81974 10.3299 7.51641 9.51241 7.54974 8.83657C7.58141 8.17741 7.92891 7.80574 7.9864 7.74824C8.58141 7.15324 8.69557 6.30657 8.35974 5.70407L7.81891 4.73491Z" fill="white"/>
</svg>
