<svg width="24" height="24" viewBox="0 0 24 24" fill="none" xmlns="http://www.w3.org/2000/svg">
<path fill-rule="evenodd" clip-rule="evenodd" d="M12 0.214285C9.62914 0.214285 7.62857 0.889713 6.21943 2.30914C4.81371 3.72686 4.14514 5.74114 4.14514 8.124C4.14514 9.06686 4.008 9.60171 3.86057 9.92743C3.72 10.2394 3.53829 10.4366 3.27429 10.68L3.16629 10.7777C2.91257 11.0057 2.53543 11.3434 2.25429 11.8011C1.89771 12.3771 1.71429 13.08 1.71429 14.0006C1.71429 15.2589 2.41029 16.1794 3.27771 16.8034C4.12114 17.412 5.20971 17.8063 6.27429 18.0737C8.41543 18.612 10.8189 18.7149 12 18.7149C13.1811 18.7149 15.5846 18.612 17.7257 18.0737C18.7903 17.8063 19.8771 17.412 20.7223 16.8051C21.5897 16.1794 22.2857 15.2589 22.2857 14.0006C22.2857 13.0783 22.1023 12.3771 21.7474 11.8011C21.4934 11.418 21.1857 11.0733 20.8337 10.7777L20.724 10.68C20.4617 10.4366 20.28 10.2394 20.1394 9.92743C19.992 9.60171 19.8549 9.06857 19.8549 8.124C19.8549 5.74114 19.1863 3.72686 17.7806 2.30914C16.3714 0.889713 14.3691 0.214285 12 0.214285ZM6.288 8.124C6.288 6.13028 6.84171 4.72457 7.74171 3.81771C8.64171 2.91086 10.0286 2.35714 12 2.35714C13.9714 2.35714 15.36 2.91257 16.2583 3.81771C17.1583 4.72628 17.712 6.132 17.712 8.124C17.712 9.26743 17.8783 10.1246 18.1869 10.8086C18.5023 11.508 18.9274 11.9366 19.272 12.2554L19.4331 12.4029C19.6886 12.6343 19.8137 12.7491 19.9217 12.9257C20.0229 13.0886 20.1429 13.3766 20.1429 14.0006C20.1429 14.3606 19.9731 14.7034 19.4709 15.0634C18.9446 15.444 18.1577 15.756 17.2046 15.996C15.3103 16.4709 13.1074 16.572 12 16.572C10.8926 16.572 8.68971 16.4709 6.79543 15.996C5.84229 15.756 5.05543 15.4423 4.52914 15.0651C4.02686 14.7017 3.85714 14.3589 3.85714 14.0006C3.85714 13.3766 3.97714 13.0886 4.07829 12.9257C4.18629 12.7491 4.31143 12.6343 4.56514 12.4029L4.728 12.2554C5.07086 11.9366 5.49943 11.508 5.81314 10.8086C6.12171 10.1246 6.288 9.26743 6.288 8.124ZM9.28286 20.0263C9.10889 20.0263 8.93754 20.0687 8.78363 20.1498C8.62971 20.2309 8.49785 20.3482 8.39945 20.4917C8.30105 20.6352 8.23906 20.8004 8.21885 20.9732C8.19863 21.146 8.2208 21.3211 8.28343 21.4834C8.568 22.2189 9.05486 22.8154 9.72686 23.2183C10.3886 23.6126 11.1669 23.7857 12 23.7857C12.8314 23.7857 13.6114 23.6143 14.2714 23.2183C14.9451 22.8154 15.432 22.2189 15.7149 21.4834C15.7775 21.3211 15.7997 21.146 15.7794 20.9732C15.7592 20.8004 15.6972 20.6352 15.5988 20.4917C15.5004 20.3482 15.3686 20.2309 15.2147 20.1498C15.0607 20.0687 14.8894 20.0263 14.7154 20.0263H9.28286Z" fill="#101828"/>
</svg>
