<svg width="14" height="16" viewBox="0 0 14 16" fill="none" xmlns="http://www.w3.org/2000/svg">
<path d="M10.7948 7.416C10.7254 7.38288 10.6554 7.3511 10.5848 7.32067C10.4615 5.04467 9.21816 3.742 7.13016 3.72867H7.10216C5.8535 3.72867 4.81483 4.262 4.1755 5.232L5.3235 6.01933C5.80083 5.29467 6.55016 5.14067 7.10283 5.14067H7.1215C7.80883 5.14467 8.32816 5.34467 8.6635 5.734C8.90816 6.018 9.0715 6.41067 9.15216 6.90533C8.50005 6.79959 7.8381 6.76761 7.17883 6.81C5.19416 6.92467 3.9175 8.08267 4.0035 9.69133C4.04683 10.5067 4.4535 11.2093 5.14816 11.6673C5.73483 12.0553 6.4915 12.2447 7.2775 12.202C8.31616 12.1453 9.13083 11.7487 9.69883 11.0247C10.1302 10.4747 10.4028 9.762 10.5235 8.864C11.0182 9.16267 11.3848 9.55533 11.5875 10.0273C11.9315 10.8307 11.9515 12.15 10.8755 13.2253C9.93216 14.168 8.79816 14.5753 7.08483 14.588C5.18416 14.5747 3.74616 13.9647 2.8115 12.7767C1.93616 11.6633 1.48416 10.0567 1.4675 8C1.48416 5.94333 1.93616 4.336 2.8115 3.22333C3.74616 2.03533 5.1835 1.426 7.08483 1.412C8.99883 1.42533 10.4615 2.03867 11.4322 3.232C11.9082 3.818 12.2668 4.554 12.5035 5.412L13.8488 5.05333C13.5622 3.99667 13.1108 3.08667 12.4975 2.33133C11.2535 0.8 9.4335 0.016 7.0895 0H7.08016C4.74016 0.016 2.9415 0.803333 1.73283 2.34C0.656829 3.70667 0.102163 5.60933 0.0834961 7.99467V8.00533C0.102163 10.3907 0.656829 12.2927 1.73283 13.66C2.9415 15.1967 4.74016 15.984 7.0795 16H7.0895C9.1695 15.9853 10.6355 15.4413 11.8428 14.234C13.4235 12.6553 13.3762 10.6767 12.8548 9.462C12.4815 8.59067 11.7688 7.884 10.7948 7.416ZM7.2035 10.7913C6.3335 10.8407 5.43016 10.45 5.38483 9.614C5.3515 8.994 5.82616 8.30133 7.25683 8.21933C7.42083 8.20956 7.58172 8.20489 7.7395 8.20533C8.2595 8.20533 8.74483 8.25533 9.18683 8.352C9.02216 10.4107 8.0555 10.7447 7.2035 10.7913Z" fill="black"/>
</svg>
