<svg width="36" height="36" viewBox="0 0 36 36" fill="none" xmlns="http://www.w3.org/2000/svg">
<rect x="3.07812" y="2.9375" width="29.8438" height="29.8438" rx="14.9219" fill="#F9F5FF"/>
<rect x="3.07812" y="2.9375" width="29.8438" height="29.8438" rx="14.9219" stroke="#F9FAFB" stroke-width="4.47656"/>
<g clip-path="url(#clip0_608_939)">
<path d="M20.4872 20.3464L18.0002 17.8594M18.0002 17.8594L15.5132 20.3464M18.0002 17.8594V23.4551M23.2167 21.8323C23.8231 21.5017 24.3021 20.9786 24.5782 20.3455C24.8543 19.7124 24.9117 19.0054 24.7413 18.3361C24.5709 17.6667 24.1825 17.0732 23.6374 16.6491C23.0922 16.225 22.4214 15.9946 21.7307 15.9941H20.9473C20.7591 15.2662 20.4083 14.5904 19.9214 14.0176C19.4344 13.4448 18.8239 12.9898 18.1358 12.6868C17.4477 12.3839 16.6999 12.2409 15.9485 12.2686C15.1972 12.2963 14.4619 12.4939 13.798 12.8467C13.134 13.1994 12.5587 13.6981 12.1152 14.3052C11.6717 14.9123 11.3716 15.6121 11.2375 16.3519C11.1034 17.0917 11.1387 17.8522 11.3408 18.5764C11.543 19.3006 11.9067 19.9695 12.4045 20.5329" stroke="#101828" stroke-width="1.24349" stroke-linecap="round" stroke-linejoin="round"/>
</g>
<defs>
<clipPath id="clip0_608_939">
<rect width="14.9219" height="14.9219" fill="white" transform="translate(10.5391 10.3984)"/>
</clipPath>
</defs>
</svg>
