<svg width="18" height="18" viewBox="0 0 18 18" fill="none" xmlns="http://www.w3.org/2000/svg">
<path fill-rule="evenodd" d="M14.0255 9.19637C14.5397 8.67404 14.8254 7.96883 14.8196 7.23587C14.8139 6.50291 14.5172 5.80224 13.9949 5.28801C13.7363 5.03339 13.43 4.8322 13.0936 4.69594C12.7573 4.55967 12.3973 4.491 12.0344 4.49383C11.3014 4.49956 10.6008 4.79622 10.0865 5.31856C9.94691 5.45819 9.76945 5.62959 9.55418 5.83274L8.95563 6.39637L8.35709 5.83274C8.14133 5.6291 7.96363 5.45771 7.824 5.31856C7.30572 4.80028 6.60278 4.50911 5.86982 4.50911C5.13686 4.50911 4.43392 4.80028 3.91563 5.31856C2.848 6.38692 2.83563 8.11419 3.87636 9.18765L8.95563 14.2669L14.0255 9.19637ZM3.29818 4.70183C3.63586 4.36406 4.03677 4.09612 4.47802 3.91332C4.91926 3.73051 5.3922 3.63642 5.86982 3.63642C6.34743 3.63642 6.82037 3.73051 7.26161 3.91332C7.70286 4.09612 8.10377 4.36406 8.44145 4.70183C8.57382 4.83468 8.74521 5.00001 8.95563 5.19783C9.16509 5.00001 9.33648 4.83443 9.46982 4.7011C10.1466 4.01395 11.0685 3.62377 12.033 3.61641C12.9974 3.60904 13.9252 3.98509 14.6124 4.66183C15.2995 5.33856 15.6897 6.26055 15.6971 7.22497C15.7044 8.18938 15.3284 9.11722 14.6516 9.80437L9.46982 14.9869C9.33343 15.1233 9.14848 15.1999 8.95563 15.1999C8.76279 15.1999 8.57784 15.1233 8.44145 14.9869L3.25818 9.80365C2.59348 9.11812 2.2251 8.19865 2.23258 7.24381C2.24006 6.28898 2.62282 5.3754 3.29818 4.70037V4.70183Z" fill="white"/>
</svg>
