<svg width="22" height="22" viewBox="0 0 22 22" fill="none" xmlns="http://www.w3.org/2000/svg">
<path fill-rule="evenodd" clip-rule="evenodd" d="M17.6779 11.5913C18.3261 10.9329 18.6861 10.044 18.6789 9.1202C18.6717 8.19637 18.2978 7.31324 17.6394 6.66509C17.3134 6.34416 16.9274 6.09058 16.5034 5.91883C16.0795 5.74708 15.6258 5.66052 15.1684 5.6641C14.2445 5.67132 13.3614 6.04524 12.7133 6.70359C12.5373 6.87959 12.3136 7.09562 12.0422 7.35168L11.2878 8.06209L10.5334 7.35168C10.2615 7.09501 10.0375 6.87898 9.8615 6.70359C9.20825 6.05034 8.32225 5.68335 7.39842 5.68335C6.47458 5.68335 5.58858 6.05034 4.93533 6.70359C3.58967 8.05018 3.57408 10.2273 4.88583 11.5803L11.2878 17.9823L17.6779 11.5913ZM4.15708 5.92626C4.5827 5.50053 5.08802 5.16282 5.64417 4.93241C6.20033 4.702 6.79642 4.5834 7.39842 4.5834C8.00041 4.5834 8.59651 4.702 9.15266 4.93241C9.70882 5.16282 10.2141 5.50053 10.6398 5.92626C10.8066 6.0937 11.0226 6.30209 11.2878 6.55143C11.5518 6.30209 11.7679 6.0934 11.9359 5.92534C12.7889 5.05925 13.951 4.56746 15.1665 4.55818C16.3821 4.5489 17.5516 5.02287 18.4177 5.87584C19.2838 6.72881 19.7755 7.8909 19.7848 9.10647C19.7941 10.322 19.3201 11.4915 18.4672 12.3576L11.9359 18.8898C11.764 19.0616 11.5309 19.1581 11.2878 19.1581C11.0448 19.1581 10.8117 19.0616 10.6398 18.8898L4.10667 12.3567C3.26887 11.4926 2.80455 10.3337 2.81398 9.13022C2.82342 7.92673 3.30585 6.77524 4.15708 5.92443V5.92626Z" fill="#53389E"/>
</svg>
