<svg width="19" height="19" viewBox="0 0 19 19" fill="none" xmlns="http://www.w3.org/2000/svg">
<path fill-rule="evenodd" clip-rule="evenodd" d="M14.6618 9.83273C15.1761 9.31039 15.4617 8.60518 15.456 7.87222C15.4503 7.13926 15.1536 6.43859 14.6313 5.92436C14.3726 5.66974 14.0664 5.46855 13.73 5.33229C13.3936 5.19603 13.0337 5.12735 12.6708 5.13019C11.9378 5.13592 11.2371 5.43258 10.7229 5.95491C10.5833 6.09454 10.4058 6.26594 10.1905 6.46909L9.592 7.03273L8.99346 6.46909C8.7777 6.26545 8.6 6.09406 8.46037 5.95491C7.94208 5.43663 7.23914 5.14546 6.50618 5.14546C5.77322 5.14546 5.07028 5.43663 4.552 5.95491C3.48436 7.02327 3.472 8.75055 4.51273 9.824L9.592 14.9033L14.6618 9.83273ZM3.93455 5.33818C4.27223 5.00041 4.67314 4.73247 5.11439 4.54967C5.55563 4.36686 6.02857 4.27278 6.50618 4.27278C6.9838 4.27278 7.45673 4.36686 7.89798 4.54967C8.33923 4.73247 8.74014 5.00041 9.07782 5.33818C9.21018 5.47103 9.38158 5.63636 9.592 5.83418C9.80146 5.63636 9.97285 5.47079 10.1062 5.33745C10.7829 4.6503 11.7049 4.26013 12.6693 4.25276C13.6337 4.2454 14.5616 4.62144 15.2487 5.29818C15.9359 5.97492 16.3261 6.89691 16.3334 7.86132C16.3408 8.82573 15.9647 9.75357 15.288 10.4407L10.1062 15.6233C9.9698 15.7596 9.78485 15.8362 9.592 15.8362C9.39916 15.8362 9.2142 15.7596 9.07782 15.6233L3.89455 10.44C3.22985 9.75447 2.86146 8.835 2.86895 7.88017C2.87643 6.92533 3.25918 6.01175 3.93455 5.33673V5.33818Z" fill="white"/>
</svg>
