<svg width="24" height="24" viewBox="0 0 24 24" fill="none" xmlns="http://www.w3.org/2000/svg">
<path fill-rule="evenodd" clip-rule="evenodd" d="M4.53618 5.77799C5.47382 4.84063 6.74536 4.31406 8.07118 4.31406C9.397 4.31406 10.6685 4.84063 11.6062 5.77799C11.7895 5.96066 12.0255 6.18799 12.3142 6.45999C12.6022 6.18799 12.8378 5.96066 13.0212 5.77799C13.9549 4.84866 15.2176 4.32537 16.535 4.32184C17.8524 4.31832 19.1179 4.83483 20.0566 5.75915C20.9952 6.68346 21.5312 7.94088 21.548 9.25814C21.5648 10.5754 21.061 11.8461 20.1462 12.794L13.0202 19.92C12.8327 20.1075 12.5783 20.2128 12.3132 20.2128C12.048 20.2128 11.7937 20.1075 11.6062 19.92L4.48018 12.795C3.56622 11.8524 3.05969 10.5881 3.06998 9.27522C3.08027 7.96232 3.60755 6.70615 4.53618 5.77799Z" fill="#53389E"/>
</svg>
